HIERARCHY
ROOT root
{
	OFFSET	0	13.1	24.9
	CHANNELS 6  Xposition Yposition Zposition Xrotation Yrotation Zrotation
	JOINT spine_1
	{
		OFFSET	0	9.99999	0
		CHANNELS 3  Xrotation Yrotation Zrotation
		JOINT spine_2
		{
			OFFSET	0	112	-10
			CHANNELS 3  Xrotation Yrotation Zrotation
			JOINT spine_3
			{
				OFFSET	0	206.5	19.3
				CHANNELS 3  Xrotation Yrotation Zrotation
				JOINT spine_4
				{
					OFFSET	0	110.4	14.6
					CHANNELS 3  Xrotation Yrotation Zrotation
					JOINT neck_1
					{
						OFFSET	0	71.8	-50.3
						CHANNELS 3  Xrotation Yrotation Zrotation
						JOINT neck_2
						{
							OFFSET	0	86.2	-25.8
							CHANNELS 3  Xrotation Yrotation Zrotation
							JOINT head_ee
							{
								OFFSET	0	179.8	-8.7
								CHANNELS 3  Xrotation Yrotation Zrotation
								End Site
								{
									OFFSET	1	0	0
								}
							}
						}
					}
					JOINT left_clavicle
					{
						OFFSET	-43.2	22.4	-70.8
						CHANNELS 3  Xrotation Yrotation Zrotation
						JOINT left_shoulder
						{
							OFFSET	-93.9	-5.79999	48.7
							CHANNELS 3  Xrotation Yrotation Zrotation
							JOINT left_elbow
							{
								OFFSET	-291.4	-30.8	15.2
								CHANNELS 3  Xrotation Yrotation Zrotation
								JOINT left_lowarm_twist
								{
									OFFSET	-110.7	-3.89999	13.6
									CHANNELS 3  Xrotation Yrotation Zrotation
									JOINT left_hand
									{
										OFFSET	-110.7	-3.89999	13.6
										CHANNELS 3  Xrotation Yrotation Zrotation
										JOINT left_ee
										{
											OFFSET	-80.8	-5.10001	12.1
											CHANNELS 3  Xrotation Yrotation Zrotation
											End Site
											{
												OFFSET	1	0	0
											}
										}
									}
								}
							}
						}
					}
					JOINT right_clavicle
					{
						OFFSET	43.2	22.4	-70.8
						CHANNELS 3  Xrotation Yrotation Zrotation
						JOINT right_shoulder
						{
							OFFSET	93.9	-5.79999	48.7
							CHANNELS 3  Xrotation Yrotation Zrotation
							JOINT right_elbow
							{
								OFFSET	291.4	-30.8	15.2
								CHANNELS 3  Xrotation Yrotation Zrotation
								JOINT right_lowarm_twist
								{
									OFFSET	110.7	-3.89999	13.6
									CHANNELS 3  Xrotation Yrotation Zrotation
									JOINT right_hand
									{
										OFFSET	110.7	-3.89999	13.6
										CHANNELS 3  Xrotation Yrotation Zrotation
										JOINT right_ee
										{
											OFFSET	80.8	-5.10001	12.1
											CHANNELS 3  Xrotation Yrotation Zrotation
											End Site
											{
												OFFSET	1	0	0
											}
										}
									}
								}
							}
						}
					}
				}
			}
		}
	}
	JOINT left_hip
	{
		OFFSET	-82.8	-127.5	0.300001
		CHANNELS 3  Xrotation Yrotation Zrotation
		JOINT left_knee
		{
			OFFSET	-28.2	-396.7	2.2
			CHANNELS 3  Xrotation Yrotation Zrotation
			JOINT left_ankle
			{
				OFFSET	-11.7	-411.3	35.4
				CHANNELS 3  Xrotation Yrotation Zrotation
				JOINT left_toes
				{
					OFFSET	0	-60	-88.6
					CHANNELS 3  Xrotation Yrotation Zrotation
					JOINT left_foot_ee
					{
						OFFSET	-22.5	-16.5	-42.2
						CHANNELS 3  Xrotation Yrotation Zrotation
						End Site
						{
							OFFSET	1	0	0
						}
					}
				}
			}
		}
	}
	JOINT right_hip
	{
		OFFSET	82.8	-127.5	0.300001
		CHANNELS 3  Xrotation Yrotation Zrotation
		JOINT right_knee
		{
			OFFSET	28.2	-396.7	2.2
			CHANNELS 3  Xrotation Yrotation Zrotation
			JOINT right_ankle
			{
				OFFSET	11.7	-411.3	35.4
				CHANNELS 3  Xrotation Yrotation Zrotation
				JOINT right_toes
				{
					OFFSET	0	-60	-88.6
					CHANNELS 3  Xrotation Yrotation Zrotation
					JOINT right_foot_ee
					{
						OFFSET	22.5	-16.5	-42.2
						CHANNELS 3  Xrotation Yrotation Zrotation
						End Site
						{
							OFFSET	1	0	0
						}
					}
				}
			}
		}
	}
}
MOTION
Frames: 11
Frame Time: 0.02
1328.92425193 746.192 -1691.698348 4.39221829902 21.2715794256 0.0181457960724 -2.4998 -0.748186 -0.59396 -2.49988 -0.708876 -0.640365 -2.49163 -0.524286 -0.798557 -2.49195 -0.643821 -0.705738 0.774597 6.39155 2.16565 0.844143 9.53895 2.9622 -0.0 0.0 -0.0 8.53122 14.4914 15.7501 -18.6004 -37.6682 53.45 0.482531 -13.4435 0.0568703 44.4548 -0.601023 -5.50657 0.0394849 -17.2869 -7.09315 -0.0 0.0 -0.0 11.302 20.6987 -22.2885 -28.707 40.8185 -42.5847 0.735025 20.0071 -0.129653 -59.3639 5.20376 -5.08094 -6.19182 25.0594 59.8197 0.0 0.0 0.0 25.0432 -2.9244 -3.72524 -58.4537 -2.03534 8.35288 -18.0546 15.7694 2.73261 25.0405 -0.0 -0.0 -0.0 0.0 -0.0 6.48524 24.3237 -9.2882 3.96344 0.183388 0.58035 5.95928 -20.4787 0.878511 20.3055 -0.0 -0.0 0.0 0.0 0.0 
1283.77272079 749.843 -1719.71402401 3.92090665378 21.369679822 0.141213846707 -1.96822 -0.440064 -0.510832 -1.96817 -0.406667 -0.537799 -1.96412 -0.263452 -0.620642 -1.96448 -0.358163 -0.571248 2.63586 5.71243 0.610123 2.71832 9.46853 1.10002 -0.0 0.0 -0.0 7.62336 20.3331 13.6816 -25.9993 -35.9127 58.0256 0.474207 -13.2198 0.0549508 44.3234 -0.593028 -5.49178 0.776078 -22.5329 -4.45053 -0.0 0.0 -0.0 10.7449 21.3047 -20.979 -25.8581 41.8561 -41.9553 0.893519 23.875 -0.188909 -59.7465 5.25124 -5.09322 -5.98389 25.2268 57.5052 0.0 0.0 0.0 26.5144 -1.32793 -4.10758 -52.9015 -1.48415 7.69855 -10.5259 17.2358 1.58794 28.752 -0.0 -0.0 -0.0 0.0 -0.0 2.61888 4.12066 -7.7633 2.27064 0.100142 0.334008 -4.67115 -25.1768 -0.720472 11.8707 -0.0 -0.0 0.0 0.0 0.0 
1247.94121816 747.301 -1735.04339619 2.67094468038 21.9821090122 0.33409896115 -1.2863 -0.193229 -0.505835 -1.28617 -0.16065 -0.517105 -1.28456 -0.0362792 -0.540268 -1.28495 -0.121148 -0.527758 4.40426 5.4368 -1.52291 4.5575 10.6906 -1.43574 -0.0 0.0 -0.0 6.85456 22.6506 12.3105 -29.9079 -34.8568 60.2663 0.446277 -12.4662 0.0487425 44.5803 -0.608686 -5.52068 1.39092 -25.9511 -1.97313 -0.0 0.0 -0.0 9.78555 21.9957 -18.7664 -24.0881 42.4702 -41.9516 1.03674 27.1831 -0.250659 -60.0491 5.28886 -5.10271 -5.80013 25.5386 55.6078 0.0 0.0 0.0 25.8702 0.357301 -3.86948 -52.5798 -1.4542 7.65906 -3.17576 18.298 0.474907 32.6631 -0.0 -0.0 -0.0 0.0 -0.0 0.49263 -10.1838 -7.12436 0.525968 0.0220155 0.0777104 -13.6323 -27.7791 -2.15929 6.42217 -0.0 -0.0 0.0 0.0 0.0 
1220.55301192 748.933 -1743.28466963 2.21993611871 23.1857967413 0.384235600559 -1.08834 0.0435509 -0.494749 -1.08821 0.0749444 -0.490975 -1.08878 0.185256 -0.460819 -1.08906 0.110155 -0.484293 5.47197 4.72812 -4.18701 5.74782 11.7465 -4.62965 -0.0 0.0 -0.0 6.86867 23.5455 12.2495 -30.8784 -34.4174 60.8537 0.427834 -11.9662 0.0448398 44.991 -0.633992 -5.56675 2.11318 -28.6188 1.38815 -0.0 0.0 -0.0 8.51311 22.8606 -15.8619 -21.5496 43.3472 -42.0252 1.25683 31.905 -0.359277 -59.8564 5.2649 -5.09669 -5.4644 25.6559 52.2227 0.0 0.0 0.0 26.8629 1.89938 -5.33415 -49.5815 -1.18592 7.28321 1.89392 19.9019 -0.281581 35.0116 -0.0 -0.0 -0.0 0.0 -0.0 -1.1211 -25.2802 -5.64696 -1.49871 -0.0588016 -0.222476 -22.823 -29.5483 -3.67441 1.05492 -0.0 -0.0 0.0 0.0 0.0 
1210.03389884 735.24 -1753.89632269 3.32649995732 26.7261379222 1.31566663934 -1.32502 0.0497634 -0.295124 -1.32497 0.068442 -0.29136 -1.3253 0.134373 -0.26743 -1.32539 0.0904509 -0.285296 3.73095 4.72665 -7.95349 4.27376 15.0158 -8.73857 -0.0 0.0 -0.0 5.05159 23.7815 9.6727 -32.2545 -34.055 60.3689 0.633274 -17.417 0.0970018 44.468 -0.601826 -5.50805 2.16413 -28.5625 1.73853 -0.0 0.0 -0.0 8.27507 21.7413 -15.4334 -20.5987 44.129 -42.0643 1.3191 33.1607 -0.392764 -58.6313 5.11304 -5.05653 -5.72429 25.7934 54.8832 0.0 0.0 0.0 26.3203 2.9554 -7.37413 -44.1183 -0.749339 6.56495 10.1258 18.2003 -1.46229 29.5996 -0.0 -0.0 -0.0 0.0 -0.0 -2.64417 -27.204 -7.10695 -5.25862 -0.180515 -0.786572 -23.1587 -29.2368 -3.72098 2.11517 -0.0 -0.0 0.0 0.0 0.0 
1191.82328293 738.988 -1772.27337284 3.66828785992 30.0332221808 2.29905888525 -1.43539 0.162159 -0.216579 -1.43538 0.175612 -0.205821 -1.43603 0.218999 -0.158875 -1.43602 0.19116 -0.191468 3.54876 5.70765 -8.24051 4.19019 16.9528 -8.99455 -0.0 0.0 -0.0 4.33181 23.7692 8.67362 -33.1561 -33.9458 59.2616 0.680649 -18.6328 0.111662 45.1054 -0.641101 -5.57955 2.30367 -27.3275 3.23176 -0.0 0.0 -0.0 9.05013 21.9094 -17.1349 -18.886 44.8721 -42.49 1.3277 33.3314 -0.397479 -57.2296 4.94036 -5.00661 -5.85008 25.4724 56.1197 0.0 0.0 0.0 25.4267 1.18939 -8.37145 -35.3428 -0.197364 5.33539 10.2549 18.5829 -1.48214 27.544 -0.0 -0.0 -0.0 0.0 -0.0 -3.22695 -27.223 -7.93638 -8.1249 -0.24828 -1.22117 -24.2344 -28.5094 -3.87603 1.58072 -0.0 -0.0 0.0 0.0 0.0 
1172.02875389 734.91 -1784.20035943 3.31321204049 32.9259552222 2.43921050318 -1.09996 0.227585 -0.00438112 -1.09999 0.227402 0.0101096 -1.09997 0.21905 0.0618946 -1.0999 0.226076 0.0265228 4.42327 6.08907 -7.43948 5.04737 16.9212 -8.21015 -0.0 0.0 -0.0 4.15495 23.8812 8.42744 -33.9661 -33.8215 58.5762 0.661867 -18.1528 0.105736 45.2362 -0.649254 -5.59416 2.15087 -25.8019 2.9936 -0.0 0.0 -0.0 8.50472 22.057 -15.9138 -17.4096 44.9141 -42.2889 1.3924 34.5942 -0.433627 -54.6018 4.62007 -4.90168 -5.96723 25.4673 57.3863 0.0 0.0 0.0 23.2628 -0.527934 -8.33402 -29.882 0.0485692 4.53389 13.6835 18.6369 -1.95478 26.8895 -0.0 -0.0 -0.0 0.0 -0.0 -3.41491 -26.7154 -8.29737 -9.46279 -0.272448 -1.42504 -24.3957 -28.626 -3.90473 0.601228 -0.0 -0.0 0.0 0.0 0.0 
1143.45609811 730.625 -1797.90532093 4.23109636309 35.8325267385 1.63615809495 -1.13706 0.249581 -0.157408 -1.13709 0.259091 -0.141208 -1.13777 0.284587 -0.077962 -1.13768 0.268703 -0.121929 5.19878 6.6001 -6.3091 5.7805 16.8008 -7.00793 -0.0 0.0 -0.0 3.97801 23.9973 8.18259 -35.1436 -33.5234 57.3082 0.628546 -17.2948 0.0955914 45.6396 -0.674626 -5.63912 2.1386 -23.6632 3.94151 -0.0 0.0 -0.0 8.14649 22.2567 -15.1055 -18.4699 44.6239 -41.1505 1.4291 35.2939 -0.454647 -52.7145 4.39312 -4.81729 -6.02441 25.2244 57.9539 0.0 0.0 0.0 22.4229 -3.08986 -8.89421 -25.2302 0.197015 3.83561 15.7946 18.4734 -2.2374 25.5627 -0.0 -0.0 -0.0 0.0 -0.0 -4.44584 -24.324 -7.66671 -11.4746 -0.299811 -1.73251 -24.6273 -28.8045 -3.94631 -0.151814 0.0 0.0 0.0 0.0 0.0 
1121.89225709 718.579 -1806.68615847 4.43291349394 38.0731006788 1.65293593053 -1.13983 0.225613 -0.585546 -1.13968 0.262415 -0.570004 -1.14228 0.386302 -0.494507 -1.1425 0.303357 -0.549309 6.64302 6.88835 -5.34029 7.20112 16.3779 -6.0834 -0.0 0.0 -0.0 3.80109 24.1504 7.93912 -36.2297 -33.7561 56.8315 0.585488 -16.1741 0.0831929 46.0682 -0.70193 -5.6867 2.13675 -20.8381 5.27152 -0.0 0.0 -0.0 8.40223 22.341 -15.6627 -20.8867 44.0807 -40.2175 1.36206 34.0067 -0.416529 -50.8144 4.16753 -4.72482 -6.07568 23.3739 57.9903 0.0 0.0 0.0 21.5503 -6.1979 -8.55818 -19.852 0.29737 3.01672 17.9272 18.1396 -2.51528 23.7016 -0.0 -0.0 -0.0 0.0 -0.0 -4.48078 -21.5948 -7.06807 -12.0749 -0.305883 -1.82442 -25.5439 -29.5187 -4.11227 -1.23529 0.0 0.0 0.0 0.0 0.0 
1116.77285525 718.579 -1802.75975319 4.48801562669 38.960576506 1.56445588158 -1.13983 0.225613 -0.585546 -1.13968 0.262415 -0.570004 -1.14228 0.386302 -0.494507 -1.1425 0.303357 -0.549309 6.64302 6.88835 -5.34029 7.20112 16.3779 -6.0834 -0.0 0.0 -0.0 3.80109 24.1504 7.93912 -36.2297 -33.7561 56.8315 0.585488 -16.1741 0.0831929 46.0682 -0.70193 -5.6867 2.13675 -20.8381 5.27152 -0.0 0.0 -0.0 8.40223 22.341 -15.6627 -20.8867 44.0807 -40.2175 1.36206 34.0067 -0.416529 -50.8144 4.16753 -4.72482 -6.07568 23.3739 57.9903 0.0 0.0 0.0 21.5503 -6.1979 -8.55818 -19.852 0.29737 3.01672 17.9272 18.1396 -2.51528 23.7016 -0.0 -0.0 -0.0 0.0 -0.0 -4.48078 -21.5948 -7.06807 -12.0749 -0.305883 -1.82442 -25.5439 -29.5187 -4.11227 -1.23529 0.0 0.0 0.0 0.0 0.0 
1101.30168323 725.709 -1809.55804899 3.24420934708 40.1420698513 2.7810140245 -1.17635 0.28503 -0.800431 -1.17605 0.335385 -0.780674 -1.18059 0.506173 -0.682442 -1.18103 0.392045 -0.753815 6.07715 7.30525 -3.22342 6.4702 15.2578 -3.49947 -0.0 0.0 -0.0 4.23105 24.4357 8.52334 -37.2796 -34.0207 58.3055 0.501381 -13.9485 0.0613334 46.2975 -0.716678 -5.71207 2.18787 -19.1864 6.38847 -0.0 0.0 -0.0 8.50273 22.5036 -15.8706 -20.3529 43.7487 -39.0657 1.27854 32.3468 -0.370822 -48.6049 3.90919 -4.60796 -6.06807 21.8092 57.383 0.0 0.0 0.0 21.7649 -7.64003 -7.37826 -12.2187 0.307194 1.84643 17.7668 17.4724 -2.48904 21.1155 -0.0 -0.0 -0.0 0.0 -0.0 -4.65198 -20.5804 -6.39964 -12.1375 -0.306461 -1.834 -24.9211 -28.898 -3.9958 -2.78082 0.0 0.0 0.0 0.0 0.0 
